<?xml version="1.0" standalone="no"?><!DOCTYPE svg PUBLIC "-//W3C//DTD SVG 1.1//EN" "http://www.w3.org/Graphics/SVG/1.1/DTD/svg11.dtd"><svg t="1631025393609" class="icon" viewBox="0 0 1024 1024" version="1.1" xmlns="http://www.w3.org/2000/svg" p-id="15622" xmlns:xlink="http://www.w3.org/1999/xlink" width="200" height="200"><defs><style type="text/css"></style></defs><path d="M817.146132 152.977769H494.850706l-4.502321-35.360933c-2.984685-33.03389-28.683332-97.331094-104.211047-104.211046C313.037842 6.778777 175.185851 0.303527 169.317656 0l-2.478806 53.319632c1.416461 0.050588 142.556664 6.728189 214.492639 13.254027 48.969074 4.451734 55.343148 50.790238 56.00079 56.810196l3.743504 29.593914H292.448572v871.022231H857.211738V152.977769h-40.065606z m0 831.007213H332.463591V192.992787h113.670981l27.570398 217.882028H359.173995v546.399763h431.312321v-546.349175h-262.955835l-27.620986-217.932616h317.236637v790.992195z m-263.411126-321.840135c13.962257 5.008201 21.246912 20.386918 16.2893 34.349175l-30.504496 85.493529a26.912756 26.912756 0 0 1-34.349175 16.289299l-85.493528-30.504495a26.81158 26.81158 0 0 1-16.289299-34.349175l30.453907-85.493529a26.963344 26.963344 0 0 1 34.349175-16.289299l85.544116 30.504495z m191.677503-128.29088l-30.504496 85.493528a26.81158 26.81158 0 0 1-34.349175 16.238712l-85.493528-30.453908a26.81158 26.81158 0 0 1-16.238712-34.349175l30.453908-85.493528a26.81158 26.81158 0 0 1 34.349175-16.2893l85.493528 30.453908c13.911669 5.058789 21.246912 20.437506 16.2893 34.399763z m12.950499 319.563679a26.912756 26.912756 0 0 1-15.884597 34.551527l-85.190001 31.465665a26.81158 26.81158 0 0 1-34.500938-15.834008l-31.516254-85.190001a26.912756 26.912756 0 0 1 15.884597-34.551527l85.190001-31.465665a26.862168 26.862168 0 0 1 34.500938 15.884596l31.516254 85.139413z" p-id="15623" fill="#ffffff"></path></svg>