<?xml version="1.0" standalone="no"?>
<!DOCTYPE svg PUBLIC "-//W3C//DTD SVG 20010904//EN"
 "http://www.w3.org/TR/2001/REC-SVG-20010904/DTD/svg10.dtd">
<svg version="1.0" xmlns="http://www.w3.org/2000/svg"
 width="700.000000pt" height="700.000000pt" viewBox="0 0 700.000000 700.000000"
 preserveAspectRatio="xMidYMid meet">
<metadata>
Created by potrace 1.14, written by Peter Selinger 2001-2017
</metadata>
<g transform="translate(0.000000,700.000000) scale(0.100000,-0.100000)"
fill="#000000" stroke="none">
<path d="M1159 6997 c-2 -7 -12 -233 -13 -292 -1 -68 0 -70 24 -71 14 -1 93
-5 175 -9 83 -3 173 -8 200 -10 28 -2 104 -6 170 -9 66 -4 143 -8 170 -11 28
-2 100 -7 160 -10 61 -3 142 -8 180 -11 82 -6 135 -10 265 -19 52 -3 122 -11
155 -17 155 -26 265 -123 321 -282 14 -38 44 -232 44 -281 l0 -21 -505 1 -505
0 0 -110 c0 -174 0 -5713 0 -5782 l0 -63 1930 0 1930 0 -2 2977 -3 2977 -1232
1 c-677 0 -1234 2 -1237 5 -4 5 -12 56 -31 215 -26 213 -106 383 -246 524 -53
54 -158 123 -227 150 -100 39 -168 53 -327 66 -38 3 -88 7 -110 10 -39 4 -151
12 -305 20 -41 2 -104 7 -140 9 -36 3 -114 7 -175 11 -60 3 -141 8 -180 10
-38 3 -124 8 -190 11 -66 3 -159 7 -207 9 -49 3 -88 4 -89 2z m1892 -1329 c1
-7 3 -22 4 -33 2 -11 6 -42 9 -70 4 -27 8 -61 10 -75 2 -14 7 -52 11 -85 4
-33 8 -71 10 -85 2 -14 7 -47 10 -75 3 -27 8 -63 10 -80 33 -257 75 -592 80
-635 4 -30 11 -86 16 -125 5 -38 12 -92 15 -120 2 -27 7 -60 9 -72 l5 -23
-392 0 -393 0 0 -1865 c0 -1026 2 -1865 5 -1866 13 -3 2926 -5 2935 -2 7 2 10
632 9 1866 l0 1862 -899 5 c-888 5 -898 5 -901 25 -2 11 -6 40 -9 65 -3 25 -7
56 -9 70 -12 96 -17 130 -21 165 -6 46 -34 267 -69 545 -13 107 -27 219 -31
249 -4 30 -8 61 -10 70 -1 9 -6 45 -10 81 -4 36 -8 72 -10 80 -2 8 -6 43 -10
78 l-7 62 1084 0 1084 0 0 -2703 0 -2703 -1657 0 -1656 0 0 2703 0 2703 388 0
c304 0 389 -3 390 -12z m1448 -1909 c64 -23 179 -64 256 -91 77 -28 166 -59
199 -70 109 -38 167 -128 146 -224 -5 -23 -46 -142 -90 -265 -45 -123 -93
-257 -107 -298 -15 -41 -38 -87 -51 -102 -31 -38 -86 -63 -136 -62 -34 0 -226
59 -301 93 -11 5 -67 25 -125 45 -267 93 -294 107 -325 171 -32 68 -28 90 65
349 39 110 88 245 108 300 42 119 54 138 98 166 75 46 104 45 263 -12z m-1007
-1180 c172 -62 325 -120 340 -131 44 -31 72 -85 72 -142 0 -47 -61 -232 -190
-576 -13 -36 -24 -71 -24 -77 0 -19 -60 -82 -94 -100 -66 -34 -108 -26 -386
77 -47 18 -96 35 -110 40 -128 42 -258 94 -286 115 -60 46 -80 129 -51 215 8
25 36 104 62 175 26 72 50 141 55 155 31 96 94 259 107 280 20 31 39 47 78 65
61 29 102 19 427 -96z m1366 -723 c45 -16 99 -70 113 -114 6 -21 17 -50 24
-67 7 -16 31 -79 53 -140 22 -60 64 -173 92 -250 59 -160 65 -211 30 -272 -35
-62 -42 -65 -405 -197 -99 -37 -205 -76 -235 -88 -98 -39 -193 -22 -243 45
-26 36 -247 623 -254 678 -6 45 11 100 42 137 28 33 73 54 260 122 77 28 156
57 175 65 116 47 259 94 285 94 17 0 45 -6 63 -13z"/>
</g>
</svg>
